<?xml version="1.0" standalone="no"?>
<!DOCTYPE svg PUBLIC "-//W3C//DTD SVG 20010904//EN"
 "http://www.w3.org/TR/2001/REC-SVG-20010904/DTD/svg10.dtd">
<svg version="1.0" xmlns="http://www.w3.org/2000/svg"
 width="500.000000pt" height="500.000000pt" viewBox="0 0 500.000000 500.000000"
 preserveAspectRatio="xMidYMid meet">
<metadata>
Created by potrace 1.11, written by Peter Selinger 2001-2013
</metadata>
<g transform="translate(0.000000,500.000000) scale(0.100000,-0.100000)"
fill="#000000" stroke="none">
<path d="M0 2500 l0 -2500 2500 0 2500 0 0 29 c0 16 -9 40 -20 53 -64 75 -100
124 -100 135 0 7 -4 13 -9 13 -5 0 -9 13 -9 30 1 16 -4 36 -11 44 -7 8 -11 27
-9 43 2 21 9 29 28 31 14 2 30 8 37 14 7 6 30 7 53 3 l40 -7 0 2306 0 2306
-1755 0 c-1597 0 -1755 -1 -1755 -16 0 -13 7 -15 40 -9 28 5 40 3 40 -5 0 -16
27 -41 42 -39 36 4 43 1 104 -50 12 -10 98 -41 114 -41 6 0 10 5 10 10 0 6 -6
10 -14 10 -8 0 -17 7 -20 16 -6 15 0 16 46 10 34 -5 57 -14 65 -26 17 -24 59
-33 100 -21 23 7 33 6 36 -2 2 -7 17 -12 33 -13 39 -1 117 -24 126 -37 3 -5
35 -20 70 -31 76 -25 168 -76 168 -93 0 -7 11 -13 25 -13 14 0 25 -5 25 -11 0
-5 -5 -7 -11 -3 -7 4 -10 -4 -7 -22 2 -19 -2 -28 -10 -27 -12 3 -12 -23 1 -44
5 -7 5 -18 1 -25 -4 -7 -10 -28 -14 -48 -4 -26 -11 -36 -27 -38 -14 -2 -20 -8
-16 -18 3 -9 -1 -14 -14 -14 -10 0 -26 -9 -35 -19 -15 -17 -15 -20 0 -35 15
-15 15 -16 -6 -16 -15 0 -20 -4 -16 -15 4 -8 16 -15 28 -15 17 0 18 2 6 10 -9
6 -10 10 -3 10 6 0 14 -3 16 -8 7 -11 -29 -52 -39 -44 -5 4 -2 -1 5 -10 7 -10
25 -19 40 -19 24 -2 24 -2 3 -6 -27 -5 -37 -25 -27 -51 5 -9 7 -26 6 -36 -2
-11 8 -28 21 -38 l23 -19 -22 6 c-14 4 -23 2 -23 -4 0 -6 4 -11 9 -11 5 0 11
-6 14 -14 3 -8 -1 -13 -11 -13 -43 0 -45 -2 -27 -29 9 -14 14 -28 11 -32 -3
-3 1 -13 10 -23 14 -15 14 -20 3 -32 -8 -7 -20 -12 -27 -9 -20 6 -14 -33 11
-59 14 -16 21 -34 19 -52 -2 -16 1 -34 7 -40 12 -15 3 -31 -21 -40 -12 -4 -18
-17 -18 -38 0 -18 -3 -29 -7 -26 -3 4 -12 2 -19 -4 -9 -7 -19 -7 -34 1 -25 14
-92 5 -104 -14 -8 -11 -17 -11 -60 0 -27 7 -52 11 -55 9 -2 -3 1 -5 8 -5 7 0
10 -4 7 -9 -3 -4 -51 -9 -106 -10 -55 -1 -104 -2 -108 -3 -4 0 -15 2 -25 7
-11 4 -34 1 -58 -8 -21 -8 -37 -11 -34 -6 13 20 -24 8 -39 -13 -16 -23 -16
-23 -10 10 6 35 0 40 -23 17 -8 -8 -20 -12 -26 -8 -6 4 -8 1 -5 -9 4 -8 2 -21
-3 -29 -6 -11 -9 -11 -9 -1 0 7 -8 12 -17 10 -13 -2 -19 5 -21 25 -4 32 -22
37 -22 5 0 -46 -28 -57 -54 -23 -15 19 -15 19 -9 -4 5 -20 3 -23 -11 -18 -12
5 -16 3 -13 -5 2 -7 9 -12 15 -11 5 1 9 -8 8 -21 -1 -21 -4 -23 -21 -13 -18 9
-19 9 -6 -7 12 -14 12 -16 -2 -10 -9 3 -19 14 -22 24 -4 12 -12 17 -21 13 -13
-5 -13 -8 -1 -22 9 -9 12 -24 8 -34 -6 -17 -8 -17 -20 -3 -7 9 -19 16 -25 16
-6 -1 5 -15 24 -32 l35 -31 -40 23 -40 22 38 -36 c42 -41 44 -46 20 -46 -16 0
-16 -2 -3 -11 12 -8 12 -12 2 -16 -10 -4 -9 -8 3 -17 15 -11 14 -14 -3 -34
-10 -12 -23 -18 -27 -14 -5 4 -5 1 -1 -5 4 -7 0 -23 -8 -35 -9 -12 -16 -30
-16 -40 0 -11 -7 -18 -17 -18 -31 1 -203 27 -208 31 -2 3 -7 27 -10 54 -3 28
-7 61 -9 75 -3 14 -6 34 -8 45 -2 11 -13 28 -26 38 -12 10 -22 24 -22 31 0 6
-23 29 -51 50 -28 22 -48 45 -45 52 3 7 -7 17 -22 22 -15 5 -51 33 -80 61 -29
28 -58 51 -63 51 -6 0 -20 5 -31 11 -17 9 -18 13 -7 20 10 6 8 9 -8 9 -15 0
-23 6 -23 18 0 21 40 147 80 250 16 42 45 120 63 172 59 164 147 372 187 445
22 38 73 117 113 175 61 86 81 107 113 119 21 8 42 19 45 24 4 5 12 6 18 3 6
-4 19 -2 28 3 13 7 -205 10 -699 11 l-718 0 0 -2500z m1763 2403 c-7 -2 -21
-2 -30 0 -10 3 -4 5 12 5 17 0 24 -2 18 -5z m712 -213 c3 -5 1 -10 -4 -10 -6
0 -11 5 -11 10 0 6 2 10 4 10 3 0 8 -4 11 -10z m-31 -315 c-6 -16 -24 -21 -24
-7 0 11 11 22 21 22 5 0 6 -7 3 -15z m86 0 c20 -24 6 -27 -20 -5 -17 15 -19
20 -8 20 9 0 21 -7 28 -15z m37 -49 c-8 -8 -17 -12 -21 -9 -3 4 2 14 12 23 21
21 30 6 9 -14z m82 18 c6 4 11 2 11 -3 0 -6 -8 -11 -17 -11 -14 0 -15 -2 -5
-9 8 -4 16 -28 18 -53 3 -37 0 -48 -19 -66 -27 -25 -67 -20 -67 9 0 11 -7 19
-16 19 -10 0 -12 -4 -7 -12 4 -7 9 -23 10 -34 5 -31 -55 -41 -79 -13 -22 26
-10 73 20 77 13 2 19 8 15 18 -8 21 10 17 27 -5 7 -11 18 -18 22 -15 5 3 15 0
23 -6 8 -7 15 -9 15 -5 0 4 6 2 14 -4 11 -9 15 -6 18 14 4 19 -1 30 -20 44
-25 18 -25 18 -6 43 11 15 22 21 25 16 4 -6 12 -7 18 -4z m-162 -29 c0 -8 -4
-12 -9 -9 -4 3 -8 9 -8 15 0 5 4 9 8 9 5 0 9 -7 9 -15z m-32 -35 c3 -5 1 -10
-4 -10 -6 0 -11 5 -11 10 0 6 2 10 4 10 3 0 8 -4 11 -10z m215 -80 c0 -5 -5
-10 -11 -10 -5 0 -7 5 -4 10 3 6 8 10 11 10 2 0 4 -4 4 -10z m-225 -329 c3 -5
1 -12 -5 -16 -5 -3 -10 1 -10 9 0 18 6 21 15 7z m-27 -188 c10 -18 9 -20 -8
-16 -23 6 -22 5 -14 28 7 18 7 18 22 -12z m-1706 -135 c13 -13 36 -29 116 -85
20 -14 30 -23 21 -20 -10 3 -46 11 -80 18 -62 11 -101 29 -66 29 21 0 22 14 1
45 -18 27 -14 33 8 13z m71 -143 c54 -12 80 -23 88 -36 8 -17 6 -19 -18 -19
-35 1 -163 17 -168 22 -2 2 -7 16 -11 32 -6 24 -4 28 12 23 11 -3 54 -13 97
-22z m1457 -45 c12 -8 11 -10 -7 -10 -13 0 -23 5 -23 10 0 13 11 13 30 0z
m-1790 -31 c0 -11 -4 -17 -10 -14 -5 3 -10 13 -10 21 0 8 5 14 10 14 6 0 10
-9 10 -21z m1699 -39 c36 -20 -86 -48 -131 -31 -16 6 -28 15 -28 20 0 26 117
34 159 11z m-1289 -70 c0 -5 -2 -10 -4 -10 -3 0 -8 5 -11 10 -3 6 -1 10 4 10
6 0 11 -4 11 -10z m1240 -30 c11 -7 7 -10 -17 -10 -17 0 -35 5 -38 10 -8 13
35 13 55 0z m-1636 -113 c4 -37 11 -79 17 -94 8 -22 7 -30 -7 -40 -24 -18 -43
0 -27 26 8 12 9 31 2 57 -11 49 -11 168 0 139 5 -11 11 -50 15 -88z m896 78
c25 -13 27 -18 20 -49 -4 -19 -17 -50 -29 -69 -11 -19 -18 -36 -15 -39 3 -3
-2 -23 -10 -43 -9 -20 -14 -41 -11 -45 3 -5 -5 -16 -17 -24 -13 -10 -17 -16
-8 -16 10 0 8 -6 -7 -22 -11 -13 -28 -38 -38 -57 -9 -19 -39 -55 -66 -81 -27
-26 -49 -52 -49 -58 0 -6 -6 -15 -14 -19 -8 -4 -16 -24 -18 -43 -3 -31 -7 -35
-33 -38 -31 -4 -75 -37 -75 -57 0 -7 -9 -24 -21 -39 -16 -21 -18 -30 -9 -40 6
-8 7 -17 2 -20 -6 -3 -6 -23 -1 -48 4 -24 8 -51 9 -60 0 -21 -80 -106 -134
-143 -34 -23 -40 -24 -55 -11 -28 25 -67 30 -75 10 -5 -14 -13 -6 -35 38 -43
85 -42 84 -58 63 -7 -11 -13 -29 -13 -41 0 -12 -7 -25 -16 -28 -9 -4 -14 -13
-10 -21 3 -8 1 -15 -3 -15 -5 0 -12 6 -14 13 -4 9 -6 9 -6 0 -1 -6 3 -15 9
-18 10 -6 -6 -43 -25 -57 -6 -5 -5 -8 2 -8 9 0 7 -7 -4 -20 -17 -20 -18 -20
-31 5 -20 40 -50 173 -57 261 -9 103 8 213 47 316 l30 78 51 -6 c29 -4 72 -13
97 -21 25 -7 79 -16 120 -19 63 -6 78 -4 89 10 12 14 8 16 -40 17 -93 1 -104
18 -12 18 61 1 86 5 98 17 26 26 5 33 -70 22 -82 -11 -221 4 -245 27 -13 14
-13 21 4 68 10 28 31 71 47 94 16 23 29 46 29 52 0 6 7 11 15 11 8 0 15 7 15
16 0 11 5 14 18 9 9 -4 32 -11 50 -15 45 -11 47 -15 22 -40 -14 -14 -31 -20
-52 -18 -51 5 -42 -16 24 -55 73 -43 116 -47 193 -18 36 13 59 31 82 62 44 59
79 127 88 169 15 72 18 73 107 66 44 -4 93 -13 108 -21z m-1061 -128 c1 -16
-3 -26 -9 -22 -5 3 -10 25 -9 48 0 33 2 38 9 22 5 -11 9 -33 9 -48z m619 -15
c-10 -2 -18 -10 -18 -18 0 -8 -7 -14 -15 -14 -12 0 -13 4 -5 19 11 22 30 31
45 22 6 -3 2 -7 -7 -9z m920 -75 c20 -15 14 -25 -13 -19 -16 3 -25 0 -25 -8 0
-9 -7 -7 -21 6 -19 17 -19 19 -4 30 17 13 39 9 63 -9z m-1423 3 c3 -5 -1 -10
-9 -10 -9 0 -16 5 -16 10 0 6 4 10 9 10 6 0 13 -4 16 -10z m1374 -87 c13 -18
33 -35 45 -38 36 -10 100 -38 116 -51 77 -60 192 -90 358 -93 91 -2 122 -10
122 -33 0 -6 -7 -8 -15 -4 -8 3 -15 2 -15 -3 0 -33 -459 -38 -598 -7 -60 13
-102 38 -102 59 0 6 -7 18 -15 27 -13 15 -13 24 6 86 12 38 26 75 32 82 15 19
40 10 66 -25z m-1374 -13 c3 -5 1 -10 -4 -10 -6 0 -11 5 -11 10 0 6 2 10 4 10
3 0 8 -4 11 -10z m1585 -35 c10 -13 9 -15 -8 -15 -22 0 -36 13 -25 24 10 10
20 7 33 -9z m-53 -1 c-3 -3 -12 -4 -19 -1 -8 3 -5 6 6 6 11 1 17 -2 13 -5z
m168 -46 c7 -7 -2 -8 -30 -3 -22 3 -44 11 -50 17 -7 7 2 8 30 3 22 -3 45 -11
50 -17z m396 -113 c0 -13 -41 -19 -41 -7 0 11 20 22 33 18 5 -1 8 -6 8 -11z
m-875 -59 c7 -30 29 -40 56 -25 24 13 38 10 178 -29 58 -16 157 -35 220 -41
195 -21 374 -51 382 -64 10 -16 10 -35 -1 -41 -4 -3 -6 -16 -4 -30 4 -17 -2
-29 -19 -41 -13 -10 -18 -19 -12 -21 17 -7 -5 -49 -31 -60 -13 -6 -19 -17 -17
-31 2 -12 -2 -24 -8 -28 -6 -4 -4 -12 6 -23 15 -15 15 -17 -12 -25 -16 -5 -36
-16 -45 -23 -8 -8 -24 -14 -35 -14 -10 0 -32 -12 -48 -26 -24 -21 -27 -29 -19
-47 15 -33 14 -42 -5 -44 -22 -2 -62 -14 -62 -19 0 -2 6 -14 13 -25 10 -17 10
-23 0 -26 -7 -3 -13 -10 -13 -18 0 -19 -27 -39 -35 -25 -9 15 -28 1 -21 -16 7
-19 -20 -80 -39 -88 -25 -9 -7 -27 21 -20 14 4 24 2 24 -5 0 -6 -7 -11 -15
-11 -8 0 -15 -4 -15 -10 0 -5 7 -10 15 -10 9 0 15 -9 15 -23 0 -13 10 -34 22
-47 20 -21 20 -27 11 -74 -9 -42 -8 -55 4 -75 10 -16 15 -45 14 -83 -1 -39 5
-72 17 -97 20 -40 28 -191 11 -191 -5 0 -9 -16 -9 -36 0 -37 -38 -123 -68
-158 -27 -29 -64 -40 -74 -21 -5 8 -16 15 -24 15 -8 0 -13 4 -9 9 3 5 0 13 -6
17 -7 4 -9 3 -5 -4 3 -6 2 -13 -4 -17 -6 -4 -8 11 -5 40 4 37 1 47 -15 57 -24
15 -26 36 -5 44 8 3 17 15 21 27 4 12 17 30 30 40 13 10 24 25 24 33 0 8 8 14
18 14 14 0 15 2 2 10 -13 9 -13 11 -1 19 9 6 19 4 28 -5 26 -26 36 -16 29 28
-4 24 -8 49 -8 56 -1 6 -6 12 -12 12 -6 0 -6 4 1 11 13 13 7 136 -7 154 -4 6
-11 24 -14 40 -4 17 -17 46 -29 65 -12 20 -31 50 -42 68 -11 17 -32 36 -47 41
-16 6 -28 15 -28 20 0 6 -10 20 -22 31 -12 11 -23 31 -23 43 0 12 -7 23 -17
25 -11 2 -18 -3 -18 -13 0 -8 -7 -18 -15 -21 -8 -4 -15 -14 -15 -23 0 -14 -2
-14 -10 -1 -8 13 -10 12 -10 -2 0 -10 -5 -18 -11 -18 -5 0 -7 5 -4 10 3 6 -1
10 -9 10 -9 0 -16 5 -16 11 0 31 -62 53 -73 27 -4 -8 -8 -4 -12 10 -4 12 -11
22 -16 22 -19 0 -7 40 17 57 40 28 84 75 84 89 0 8 4 14 9 14 5 0 8 20 6 45
-4 51 23 128 43 120 6 -2 12 0 12 5 0 6 -7 10 -15 10 -8 0 -15 8 -15 18 0 11
-9 27 -20 37 -11 10 -20 23 -20 28 0 6 -6 18 -14 26 -8 9 -17 39 -21 66 -6 46
-40 115 -57 115 -4 0 -16 17 -27 38 -11 20 -31 49 -45 64 -29 30 -32 48 -14
66 20 20 47 14 54 -12z m840 -22 c-10 -10 -14 -24 -10 -40 7 -28 -3 -31 -23
-6 -14 16 -14 16 -9 -1 6 -18 -2 -18 -141 -13 -234 10 -307 20 -398 56 -11 4
77 5 195 3 118 -3 240 0 270 5 30 5 72 10 93 11 35 1 37 0 23 -15z m-1931
-544 c3 -5 1 -10 -4 -10 -6 0 -11 5 -11 10 0 6 2 10 4 10 3 0 8 -4 11 -10z
m41 -87 c-2 -16 -1 -22 1 -15 2 6 18 12 34 12 22 0 29 -5 29 -19 0 -10 7 -24
15 -31 12 -10 13 -16 4 -26 -8 -10 -8 -14 -1 -14 7 0 10 -22 8 -60 -2 -33 0
-63 5 -66 5 -3 9 -20 9 -37 0 -18 7 -43 16 -55 9 -13 13 -26 10 -29 -3 -4 1
-14 10 -24 10 -11 21 -52 27 -99 9 -68 8 -83 -4 -91 -12 -8 -11 -11 4 -20 9
-5 17 -15 17 -22 0 -7 9 -18 21 -25 18 -12 23 -11 38 5 9 10 22 29 28 43 6 14
12 18 12 10 1 -8 -10 -34 -24 -58 -25 -44 -57 -174 -49 -197 3 -7 1 -16 -5
-19 -6 -4 -15 11 -21 33 -6 22 -21 73 -34 113 -44 138 -64 213 -86 338 -13 69
-29 139 -36 156 -7 17 -22 66 -34 108 -16 63 -18 80 -8 96 17 26 18 25 14 -7z
m361 -142 c10 -10 35 -21 56 -25 20 -4 37 -11 37 -16 0 -5 13 -7 29 -4 17 4
32 1 36 -5 5 -9 10 -9 21 0 11 9 20 9 37 1 12 -7 31 -14 42 -15 11 -2 28 -7
37 -12 10 -4 24 -5 32 -2 8 3 17 -1 20 -9 3 -8 15 -14 28 -14 21 0 21 -1 5
-17 -13 -14 -35 -18 -87 -19 -38 0 -67 3 -65 6 3 4 -15 12 -38 19 -23 7 -51
16 -62 21 -41 17 -60 23 -72 21 -15 -2 -115 48 -125 63 -14 20 -8 26 22 26 16
0 37 -8 47 -19z m110 13 c-3 -3 -12 -4 -19 -1 -8 3 -5 6 6 6 11 1 17 -2 13 -5z
m-87 -233 c3 -3 22 -7 43 -9 21 -1 53 -10 70 -19 18 -9 37 -18 42 -18 6 -1 12
-3 15 -4 3 -2 28 -3 56 -5 39 -1 60 -9 93 -33 37 -27 49 -31 85 -27 48 6 79
-14 90 -59 8 -33 -19 -137 -35 -137 -6 0 -17 -7 -25 -15 -30 -30 -84 -13 -84
27 0 26 -15 22 -35 -8 -16 -25 -20 -26 -77 -20 -83 8 -98 18 -98 66 0 49 -10
50 -70 10 -25 -16 -48 -30 -52 -30 -19 0 -89 57 -94 77 -4 13 -9 23 -13 23
-11 0 -12 109 -1 153 18 70 16 68 52 50 18 -9 35 -19 38 -22z m637 -186 c14
-10 20 -22 17 -33 -15 -43 -35 -79 -53 -96 -19 -18 -21 -17 -41 15 -47 76 11
160 77 114z m-269 -260 c-14 -31 -95 -58 -158 -52 -59 6 -68 11 -50 32 10 12
9 16 -4 21 -37 14 0 21 108 20 112 0 114 0 104 -21z m-470 -298 c2 -15 9 -27
18 -27 8 0 14 -5 14 -11 0 -7 10 -9 24 -7 20 4 27 -1 37 -23 8 -21 19 -29 38
-30 14 -1 60 -2 101 -3 42 -1 88 -8 104 -16 21 -10 31 -11 33 -3 2 6 13 9 23
6 11 -3 20 -1 20 5 0 6 12 9 28 8 15 -2 42 -4 60 -5 21 -1 31 -5 27 -12 -4 -6
-13 -8 -21 -5 -8 3 -13 2 -13 -2 4 -26 -1 -34 -16 -22 -26 21 -16 -5 10 -28
21 -18 30 -44 27 -73 -1 -4 10 -7 24 -6 14 0 33 -7 41 -16 14 -14 20 -13 60 9
25 13 53 32 62 42 13 16 52 31 91 37 3 0 11 4 18 9 17 10 20 6 28 -30 5 -24
-1 -37 -35 -74 -23 -25 -39 -51 -36 -57 3 -9 -5 -13 -23 -13 -17 0 -32 -8 -40
-21 -11 -17 -19 -20 -51 -14 -36 6 -40 4 -52 -24 -8 -19 -19 -29 -27 -26 -7 3
-10 1 -7 -4 13 -22 -16 -19 -30 3 -9 13 -27 27 -41 30 -13 4 -24 11 -24 16 0
5 -7 7 -16 3 -11 -4 -23 2 -35 18 -10 13 -21 20 -26 16 -4 -5 2 -16 14 -25 23
-17 24 -40 8 -89 -8 -25 -26 -29 -57 -12 -11 6 -22 9 -24 6 -4 -4 28 -21 58
-30 11 -4 15 -13 11 -27 l-5 -20 -18 20 c-20 23 -46 26 -53 6 -4 -11 -1 -13
10 -9 11 4 14 2 9 -5 -4 -8 -2 -10 7 -6 8 3 17 -2 20 -10 5 -12 0 -16 -18 -16
-13 0 -38 -8 -55 -18 -30 -16 -33 -16 -43 0 -10 14 -13 15 -34 1 -35 -23 -48
-12 -22 21 14 18 28 26 40 23 11 -3 19 -1 19 4 0 5 -11 9 -25 9 -14 0 -25 -4
-25 -10 0 -5 -5 -10 -10 -10 -10 0 -22 -8 -56 -39 -8 -7 -17 -11 -20 -8 -3 3
-24 -1 -46 -9 -38 -13 -40 -13 -36 4 4 14 -6 26 -38 45 -33 20 -44 33 -44 52
0 17 5 25 17 25 13 0 14 3 5 12 -7 7 -12 24 -12 39 0 18 -6 28 -20 32 -11 3
-20 10 -20 16 0 6 9 11 20 11 11 0 20 5 20 10 0 6 -9 10 -20 10 -11 0 -20 7
-20 15 0 8 9 15 19 15 39 0 51 10 38 31 -6 10 -17 19 -24 19 -6 0 -15 4 -18
10 -3 6 1 7 9 4 9 -3 16 -1 16 5 0 7 -7 14 -17 18 -14 5 -13 8 6 14 20 8 21
10 7 44 -21 50 -11 207 13 203 9 -2 17 -15 19 -31z m4080 16 c-5 -26 -38 -29
-38 -4 0 15 6 21 21 21 14 0 19 -5 17 -17z m-3508 -183 c0 -5 -4 -10 -10 -10
-5 0 -10 5 -10 10 0 6 5 10 10 10 6 0 10 -4 10 -10z m-605 -120 c3 -5 -1 -10
-9 -10 -9 0 -16 5 -16 10 0 6 4 10 9 10 6 0 13 -4 16 -10z m535 -160 c0 -5 -6
-10 -14 -10 -8 0 -18 5 -21 10 -3 6 3 10 14 10 12 0 21 -4 21 -10z m66 -36
c-3 -9 -6 -21 -6 -27 -1 -13 -30 22 -30 35 0 4 9 8 21 8 15 0 19 -4 15 -16z"/>
<path d="M2600 4206 c0 -9 5 -16 10 -16 6 0 10 4 10 9 0 6 -4 13 -10 16 -5 3
-10 -1 -10 -9z"/>
<path d="M1834 1935 c-4 -10 1 -24 13 -36 17 -17 21 -18 38 -5 16 12 18 18 9
33 -15 24 -52 29 -60 8z"/>
<path d="M1300 700 c0 -5 7 -7 15 -4 8 4 15 8 15 10 0 2 -7 4 -15 4 -8 0 -15
-4 -15 -10z"/>
<path d="M1219 462 c5 -10 18 -25 28 -33 12 -10 11 -5 -6 19 -24 35 -38 43
-22 14z"/>
<path d="M1135 350 c10 -11 23 -20 28 -20 6 0 2 9 -8 20 -10 11 -23 20 -28 20
-6 0 -2 -9 8 -20z"/>
<path d="M1635 4910 c-3 -5 1 -10 9 -10 9 0 16 5 16 10 0 6 -4 10 -9 10 -6 0
-13 -4 -16 -10z"/>
<path d="M2103 4593 c-18 -7 -16 -16 6 -30 15 -10 22 -9 31 2 9 11 7 16 -7 23
-10 5 -24 7 -30 5z"/>
<path d="M2425 4450 c3 -5 8 -10 11 -10 2 0 4 5 4 10 0 6 -5 10 -11 10 -5 0
-7 -4 -4 -10z"/>
<path d="M2295 4020 c18 -34 35 -39 35 -10 0 11 -7 20 -15 20 -8 0 -15 5 -15
10 0 6 -5 10 -10 10 -6 0 -4 -13 5 -30z"/>
<path d="M2205 4000 c3 -5 11 -10 16 -10 6 0 7 5 4 10 -3 6 -11 10 -16 10 -6
0 -7 -4 -4 -10z"/>
<path d="M2350 3966 c0 -16 18 -31 27 -22 3 3 -2 12 -11 21 -14 14 -16 14 -16
1z"/>
<path d="M1000 3646 c0 -2 7 -9 15 -16 9 -7 15 -8 15 -2 0 5 -7 12 -15 16 -8
3 -15 4 -15 2z"/>
</g>
</svg>
